PathFileType	4	(X/Y/Z)	Apose_0-50.trc
DataRate	CameraRate	NumFrames	NumMarkers	Units	OrigDataRate	OrigDataStartFrame	OrigNumFrames
30	30	6	22	m	30	10	50
Frame#	Time	Hip			RHip			RKnee			RAnkle			RBigToe			RSmallToe			RHeel			LHip			LKnee			LAnkle			LBigToe			LSmallToe			LHeel			Neck			Head			Nose			RShoulder			RElbow			RWrist			LShoulder			LElbow			LWrist		
		X1	Y1	Z1	X2	Y2	Z2	X3	Y3	Z3	X4	Y4	Z4	X5	Y5	Z5	X6	Y6	Z6	X7	Y7	Z7	X8	Y8	Z8	X9	Y9	Z9	X10	Y10	Z10	X11	Y11	Z11	X12	Y12	Z12	X13	Y13	Z13	X14	Y14	Z14	X15	Y15	Z15	X16	Y16	Z16	X17	Y17	Z17	X18	Y18	Z18	X19	Y19	Z19	X20	Y20	Z20	X21	Y21	Z21	X22	Y22	Z22
11	0.36666666666666664	0.03196794439746026	0.924548518395963	0.36047671369469336	0.018841399543749263	0.8909007178765211	0.46651382474720693	0.0009447197058755854	0.508671088778667	0.5012280696320208	-0.002909205016796852	0.11054438328635234	0.5165327721096605	0.19823700606316444	0.04272957461521766	0.5668400304837891	0.14529844715778023	0.03497885795328329	0.6280846466001117	-0.034676387282576736	0.03699474975005107	0.49725030105545737	0.023819976306583914	0.8923239896455942	0.24672097381774127	0.004564654650218708	0.5123863622338793	0.22834707910007127	0.007070865582523287	0.11235247229139556	0.20934949679954892	0.2164835465168084	0.0446924175069318	0.19132577436696896	0.1643246328721274	0.03374472937041202	0.12756855098633607	-0.04414881288726192	0.05784841842146382	0.19779773303492695	0.060108349560478634	1.5714230796757809	0.3502327645820031	0.26418673199677756	1.7612421828447216	0.34305742505294584	0.31715125388267934	1.6135014841856126	0.337114149234266	0.017089442524489067	1.4996140647331297	0.535504939229697	0.05607610462197695	1.2358744726170376	0.7211200272788607	0.12193092835742152	1.046663290875304	0.9005388350019656	0.02080611095563422	1.48346911594808	0.15309230335321378	0.015662676203654524	1.2292478115783148	0.007869305441176663	0.06181224571822752	1.0196811725146677	-0.1434351609323679
12	0.4	0.031176756380899322	0.924660856666686	0.36022404962913546	0.01731930445308285	0.8919967458500268	0.46408342438537	-0.00031701963253252065	0.5104312290923325	0.4989237511085509	-0.004384037122534197	0.11184493418448865	0.517036183286134	0.19783883398788193	0.033443874334950496	0.5681441666512049	0.1514784286136805	0.026258176108896674	0.6241269044238544	-0.03546248992516341	0.0366715181906912	0.4986734139877891	0.020706573389612886	0.8929816528252674	0.24561399799403436	0.005327181539972832	0.5127166149845561	0.22650084393619102	0.0009901901125988636	0.12327696790319571	0.2078218314640076	0.21614401919739068	0.046036024839290875	0.19160215736203803	0.16538329523533662	0.03567477104461725	0.12670740139948924	-0.04298264182328253	0.060323813043507556	0.1954576934203495	0.06379636336083543	1.5682994470142415	0.34829258931802026	0.3270721616865765	1.7696437293983203	0.28303257398136633	0.3173132290433821	1.6119422314819165	0.3382113277962665	0.015868899490557614	1.500488579984122	0.5333531419119296	0.05359534825249909	1.2382495139539214	0.7195421856153438	0.11927870292142279	1.0471549300312324	0.89847728221535	0.01926704787399638	1.4820654778376134	0.1523456626855534	0.01726007904072166	1.2288755932547009	0.005495009834983865	0.055085529251270096	1.0092504289346644	-0.1498109112264948
13	0.43333333333333335	0.0294713034783783	0.924365024249279	0.3576117356290477	0.02037536807956959	0.8857633828190838	0.4631530148479983	-0.0002930355514674151	0.510567315253874	0.5010136842537168	-0.006715498340326071	0.10945086729129251	0.5176706054361221	0.20079772866230153	0.040760315117897294	0.5677352310580277	0.1497572172672028	0.022934588506573934	0.6276191425845	-0.04512666199175447	0.046676632022767166	0.5074303677723836	0.023131913719101917	0.8843335918127886	0.24643206552626482	0.00600782677205852	0.5098968660966604	0.22508471860634513	-0.0006026669248216886	0.12546207987261052	0.20787183714507307	0.2155552572306298	0.04543383507300072	0.18977161818110788	0.1644930840497107	0.03255564446227671	0.12636664862872352	-0.04277099621828246	0.05995173375173162	0.20038834807046263	0.05255415370913515	1.5753191079735862	0.3501576611614699	0.2583184975726224	1.755978171634414	0.33975011124602444	0.31871763708695255	1.6097861417999961	0.3383821952556976	0.023364424647365045	1.4985159308526677	0.5379266054453307	0.05606856040064421	1.2392579363207887	0.719703003092044	0.11927085860902273	1.0500666911348702	0.8955074672814818	0.014590762871681835	1.4809701288294044	0.14926652312152996	0.018159160886926737	1.2272981785557566	0.005829899411792857	0.057110805847284604	1.0139055822074945	-0.14587736034417637
14	0.4666666666666667	0.028828113469239712	0.9239584120588521	0.3575878387674267	0.019398442493781504	0.8855039003208869	0.4632789334941179	-0.001790059471634099	0.5105006713040133	0.4990917172747751	-0.006996691067417359	0.11189798381508106	0.5179529665404347	0.20064867163823136	0.039792288950578424	0.5673475883287861	0.14615821900984904	0.03215823399692672	0.6276921216780865	-0.0348521142779713	0.03888978698916418	0.49782930060292957	0.020524214390468136	0.8868438646907079	0.2469202575548556	0.003850873309711288	0.5098527112254885	0.22591043438681954	0.00026806644212310843	0.12320086443758152	0.20734398725919503	0.21656530015197123	0.04478061041983724	0.19169671014002365	0.16601832424189417	0.03319473266780847	0.12657941458473795	-0.04329168293237071	0.060638774806345726	0.1982279719381769	0.05230978615289138	1.5744894769394986	0.34954630868457887	0.25904809694373815	1.7549255010543068	0.33848642572539217	0.3165661033396134	1.6108566534739983	0.3364072749039119	0.021610944822402577	1.4991293242230124	0.5372604962485441	0.05280721869697346	1.2382557578695113	0.7199308703043077	0.11839678266605494	1.0491951370700572	0.8949530241538998	0.013715560744444513	1.4801033482073276	0.15033350831815562	0.015813528653797256	1.2285262277162137	0.005841089751544284	0.060287546743863184	1.0156315831921083	-0.14579084421956973
15	0.5	0.029255354053198804	0.922794289191014	0.35750289109145394	0.020045947683832138	0.8846277921969968	0.4620790325259142	-0.001619704304507176	0.5090842265807051	0.4981651092772885	-0.00711530942522785	0.11392110940425758	0.5163868377766198	0.1996077941968644	0.038648066829413505	0.567734286436437	0.1467964781412956	0.03217656329789226	0.6277481635871616	-0.03778443460660666	0.04197107385180004	0.49870576150172075	0.02236747802351046	0.8842076654374653	0.24555660038795143	0.00454902004491115	0.5080669448948921	0.22352755493099877	0.0005216581002408223	0.1227703626007597	0.20745595723745724	0.21541542995613577	0.04559888979906417	0.19280687490047702	0.1661722103283883	0.03450920942957705	0.12644217315892764	-0.053969398789532004	0.04065942838996329	0.20608842174663364	0.05416656095533643	1.5759771600313641	0.35009318218486324	0.25787379860091086	1.7558263161945147	0.3390339610862775	0.31707519459237954	1.6108892807415849	0.3367792384650587	0.021649733942345952	1.4991829811305448	0.5348221398665346	0.052744372050463374	1.2401650763191987	0.7176455823117882	0.11673762549836711	1.0502535032513383	0.8934847217765722	0.014016196597101157	1.4825207013314459	0.14963107770304548	0.01927052765356743	1.2272300812714894	0.006174414389117826	0.06994581463902387	1.0191819515053129	-0.14074472420726902
16	0.5333333333333333	0.031909143328816995	0.9241961403464656	0.35921865209962595	0.020942135979859097	0.8886796913893297	0.46178190295795585	-0.0029203291831165863	0.5080290090157566	0.49739541505556234	-0.0111157401762766	0.12108458598727233	0.5164491913477021	0.1927468129680636	0.03624448430729084	0.5630400406977815	0.152500794728138	0.0243980774939683	0.6266362693717735	-0.03652143790640656	0.03827703556775085	0.49724339209651286	0.02564670967959753	0.8891216735936793	0.24489535594380696	0.004443931115331176	0.5105061119037039	0.22349056579746487	-0.0003824696576404745	0.12565393753784745	0.20627025191092557	0.2162930280214343	0.04680942569445584	0.1892616816997458	0.16459944681381194	0.033395370589741125	0.12702825045545965	-0.05196148231268686	0.04060779268103104	0.207907936996564	0.05070057078474873	1.5735061525256069	0.35065579554142107	0.2555349751907743	1.7574813221471923	0.3393489556186433	0.3124933561047146	1.6140937386928589	0.33410229820195425	0.017605594156570606	1.4993773745834345	0.5328875782204343	0.05239901158062131	1.2383507906307367	0.7177799173780691	0.117302781893765	1.0492009958159276	0.8939801963522316	0.017537336529694844	1.479854216483072	0.15213494549736153	0.02144817647783632	1.2258263936082436	0.005732900874476517	0.07394867112877214	1.019708625911736	-0.14056840340291113
